<svg width="622" height="649" viewBox="0 0 622 649" fill="none" xmlns="http://www.w3.org/2000/svg">
<path d="M574.223 323.386C581.976 398.808 569.3 468.636 543.48 520.41C517.555 572.395 479.781 603.928 437.785 609.03C395.788 614.132 352.543 592.441 316.702 547.96C281.005 503.659 254.463 438.595 246.71 363.173C238.957 287.75 251.633 217.922 277.453 166.148C303.379 114.163 341.152 82.63 383.149 77.5281C425.146 72.4262 468.39 94.1172 504.232 138.598C539.928 182.899 566.47 247.963 574.223 323.386Z" stroke="#38537E" stroke-width="36"/>
<path d="M0 216C0 96.7065 96.7065 0 216 0H281C400.294 0 497 96.7065 497 216V633H0V216Z" fill="#38537E"/>
<path d="M0 183C0 81.9319 81.9319 0 183 0V0C284.068 0 366 81.9319 366 183V591H0V183Z" fill="#7186A8"/>
<path d="M307 204V523H41V204C41 130.546 100.546 71 174 71C247.454 71 307 130.546 307 204Z" fill="#7186A8" stroke="#38537E" stroke-width="32"/>
<rect y="353" width="323" height="186" fill="#38537E"/>
<rect y="353" width="323" height="145" fill="#7186A8"/>
<rect y="353" width="323" height="99" fill="#38537E"/>
</svg>
